<svg xmlns="http://www.w3.org/2000/svg" width="223" height="56" viewBox="0 0 223 56" fill="none"><g clip-path="url(#clip0_9_2)"><path d="M222.5 0H0.5V56H222.5V0Z" fill="white" fill-opacity="0.02"></path><path d="M50.4997 28.2691C50.4447 40.8524 40.3895 50.5568 28.5194 50.5475C16.3652 50.5289 6.56663 40.6109 6.52997 28.2877C6.50247 16.2523 16.0719 6.00929 28.5011 6C40.6736 6 50.4355 15.9087 50.4997 28.2691Z" fill="#3067FF"></path><path d="M28.6109 28.4173C28.6109 32.5962 28.6109 36.7659 28.6109 40.9448C28.6109 43.3872 26.8968 45.2445 24.4861 45.4023C23.4045 45.4673 22.3596 45.2816 21.3513 44.8823C19.6556 44.2044 18.794 42.8578 18.464 41.112C18.409 40.8148 18.3174 40.7219 18.024 40.6569C14.8526 39.9976 13.0469 36.7566 14.1376 33.6642C14.2385 33.3763 14.1835 33.2463 13.9451 33.0698C11.0028 30.9618 10.9203 26.7364 13.771 24.4984C14.0185 24.3033 14.0185 24.1826 13.8901 23.9133C12.3319 20.6816 14.3118 16.8741 17.8224 16.3633C18.299 16.2891 18.4457 16.1126 18.5373 15.6483C18.9865 13.4381 20.948 11.7108 23.1204 11.5436C25.4852 11.3672 27.6026 12.658 28.4642 14.8032C28.5742 15.0632 28.6109 15.3325 28.6109 15.6111C28.62 19.8829 28.62 24.1455 28.6109 28.4173Z" fill="#FEFEFE"></path><path d="M35.3296 35.4567C36.6862 35.4567 38.0428 35.4474 39.3994 35.466C39.7294 35.466 39.9218 35.3545 40.096 35.0759C40.4901 34.4166 40.9118 33.7758 41.3426 33.135C41.4892 32.9122 41.4984 32.7729 41.3426 32.5314C40.8018 31.7513 40.7926 30.9156 41.2784 30.0983C41.7367 29.3276 42.6167 28.919 43.5241 29.0954C44.4315 29.2718 45.0182 29.8383 45.2565 30.7391C45.6415 32.1785 44.4865 33.5715 42.9833 33.4508C42.6258 33.4229 42.4425 33.5065 42.25 33.8222C41.7551 34.6487 41.2051 35.4567 40.6918 36.2739C40.5451 36.506 40.3893 36.6082 40.1052 36.6082C37.1262 36.5989 34.1564 36.5896 31.1774 36.6175C30.6274 36.6268 30.7558 36.3017 30.7374 36.0046C30.7099 35.6517 30.7466 35.4474 31.2049 35.4567C32.589 35.4752 33.9639 35.4567 35.3296 35.4567Z" fill="#FEFEFE"></path><path d="M32.4791 25.7612C33.7441 26.1234 34.4407 25.4826 34.9998 24.4054C35.4856 23.4674 36.1364 22.6131 36.7047 21.7123C36.8605 21.4615 37.0255 21.3501 37.328 21.3594C38.1346 21.3873 38.9504 21.3594 39.757 21.3687C40.0137 21.378 40.1511 21.3037 40.2703 21.0437C40.7011 20.0593 41.691 19.5392 42.6535 19.7528C43.7167 19.985 44.4409 20.8486 44.4592 21.9073C44.4775 22.9474 43.7442 23.8668 42.7085 24.1175C41.746 24.3404 40.7286 23.8389 40.2886 22.8824C40.1603 22.5945 40.0228 22.4924 39.7112 22.5016C39.1337 22.5295 38.5471 22.5295 37.9696 22.5016C37.6671 22.4924 37.5021 22.5945 37.3463 22.8452C36.558 24.0989 35.7514 25.334 34.9631 26.5877C34.7982 26.857 34.6148 26.9499 34.3032 26.9499C33.2674 26.9313 32.2225 26.9313 31.1867 26.9499C30.8476 26.9592 30.7009 26.857 30.7559 26.5134C30.7651 26.4391 30.7651 26.3556 30.7559 26.2813C30.6918 25.8819 30.8384 25.7241 31.2509 25.7612C31.6542 25.7891 32.0667 25.7612 32.4791 25.7612Z" fill="#FEFEFE"></path><path d="M33.6248 40.8703C34.4222 40.8703 35.2105 40.861 36.008 40.8795C36.2646 40.8795 36.4021 40.8331 36.5213 40.5638C36.9521 39.5609 37.9328 39.0594 38.9411 39.2823C39.9677 39.5051 40.6918 40.3781 40.7102 41.4182C40.7285 42.4583 39.986 43.3869 38.9594 43.6284C37.9787 43.8512 36.9612 43.3405 36.5213 42.3468C36.3929 42.0682 36.2463 42.0125 35.9713 42.0125C34.3856 42.0218 32.7998 42.0125 31.2049 42.0218C30.8566 42.0218 30.6825 41.9382 30.7466 41.5575C30.765 41.4553 30.765 41.3439 30.7466 41.2324C30.71 40.9445 30.82 40.861 31.1041 40.861C31.9474 40.8795 32.7815 40.8703 33.6248 40.8703Z" fill="#FEFEFE"></path><path d="M32.2039 16.6424C32.3414 16.6424 32.4789 16.6331 32.6164 16.6424C33.1939 16.6981 33.6247 16.6331 33.9455 15.9737C34.3763 15.0915 35.4762 14.8036 36.4203 15.1286C37.3736 15.463 37.9327 16.3266 37.8869 17.3853C37.8502 18.3232 37.1353 19.1683 36.2003 19.3912C35.2562 19.614 34.2296 19.1776 33.808 18.2768C33.6247 17.8867 33.3955 17.7846 33.0105 17.8032C32.3873 17.831 31.764 17.8032 31.1315 17.8125C30.829 17.8217 30.7465 17.7103 30.7465 17.4131C30.7465 16.6331 30.7374 16.6331 31.5256 16.6331C31.7456 16.6423 31.9748 16.6424 32.2039 16.6424Z" fill="#FEFEFE"></path><path d="M32.2133 30.6653C32.3508 30.6653 32.4883 30.656 32.6258 30.6653C33.2124 30.7303 33.6249 30.6281 33.9548 29.9873C34.3948 29.1144 35.5039 28.8265 36.4388 29.1608C37.4013 29.5044 37.9604 30.396 37.8871 31.4825C37.8321 32.3647 37.108 33.2098 36.228 33.4234C35.2564 33.6555 34.2206 33.2098 33.799 32.2997C33.6249 31.9282 33.4232 31.8261 33.0382 31.8447C32.4149 31.8725 31.7916 31.8354 31.1683 31.8632C30.8567 31.8725 30.7375 31.7796 30.7467 31.4453C30.7742 30.5167 30.6459 30.6931 31.4892 30.6746C31.7275 30.6653 31.9658 30.6653 32.2133 30.6653Z" fill="#FEFEFE"></path><path d="M27.2544 19.8647C26.2736 19.5768 25.5311 19.0382 25.082 18.1653C24.7887 17.5895 24.3029 17.3481 23.8812 17.5988C23.4229 17.8681 23.3771 18.3231 23.7713 18.9732C24.4954 20.1897 25.5403 20.9977 26.8969 21.3784C27.1627 21.4527 27.2544 21.5549 27.2544 21.8427C27.2452 28.3526 27.2452 34.8625 27.2452 41.3723C27.2452 41.8552 27.0252 42.236 26.7411 42.5889C25.7328 43.8518 23.8904 44.279 22.2314 43.6475C20.7373 43.081 19.8298 41.7438 19.9215 40.0722C20.004 38.5214 20.7923 37.407 22.2039 36.7662C22.5338 36.6176 22.763 36.404 22.763 36.0047C22.7538 35.6518 22.5705 35.4382 22.268 35.2896C22.0205 35.1689 21.7914 35.2618 21.5622 35.3639C20.0865 36.0419 19.0691 37.1284 18.6382 38.7164C18.5191 39.1528 18.3449 39.1807 17.9783 39.06C16.3467 38.5306 15.256 36.9705 15.3476 35.2432C15.4393 33.5531 16.6767 32.1136 18.3358 31.7608C18.8949 31.64 19.1699 31.3057 19.0966 30.8507C19.0141 30.3771 18.6108 30.1542 18.0425 30.2656C16.9884 30.4699 16.0901 30.9621 15.3476 31.7329C15.1368 31.9465 14.9993 31.9372 14.7793 31.7793C12.7536 30.3213 12.6986 27.2382 14.6785 25.7059C14.926 25.5202 15.091 25.4738 15.3385 25.7152C15.5401 25.9195 15.7968 26.0681 16.0534 26.2074C16.4751 26.4396 16.9059 26.3281 17.1258 25.9567C17.3458 25.5759 17.2358 25.1487 16.805 24.8887C15.8059 24.2851 15.1735 23.4215 14.9352 22.2699C14.5043 20.2455 16.0443 18.0724 18.0516 17.8402C18.3541 17.8031 18.5191 17.8495 18.5833 18.2117C18.6566 18.6482 18.8582 19.0661 19.0782 19.4468C19.3349 19.8833 19.7748 20.0412 20.1598 19.8276C20.5448 19.6233 20.664 19.1682 20.3981 18.7039C19.4265 16.9952 19.9307 14.8593 21.4064 13.7635C23.4596 12.2405 26.4203 13.2248 27.181 15.6765C27.2085 15.7786 27.2544 15.8808 27.2544 15.9922C27.2544 17.2831 27.2544 18.546 27.2544 19.8647Z" fill="#3067FF"></path><path d="M25.2379 24.4704C25.0179 25.687 24.3305 26.6528 23.1297 27.1914C22.8089 27.34 22.7631 27.4143 22.9739 27.7207C24.2205 29.5966 23.8997 32.0575 22.2314 33.562C21.8831 33.8777 21.5348 33.887 21.269 33.5898C21.0124 33.3019 21.049 32.9026 21.3515 32.6054C23.1022 30.9153 22.7539 28.4729 20.5999 27.2935C20.1324 27.0428 19.9949 26.7271 20.1691 26.3742C20.3524 26.0213 20.7282 25.8634 21.104 26.1142C21.6723 26.5042 22.2131 26.4578 22.7722 26.1792C23.4505 25.8356 23.8997 25.2969 24.1197 24.5633C24.1563 24.4426 24.1747 24.3219 24.2021 24.2011C24.2755 23.8761 24.4771 23.7275 24.7979 23.7739C25.1371 23.8204 25.2654 24.0433 25.2379 24.4704Z" fill="#FEFEFE"></path><path d="M70.6684 33.1442H64.1429L63.0632 36.2661H59.6127L65.5043 19.8586H69.3304L75.2221 36.2661H71.7481L70.6684 33.1442ZM69.7764 30.5153L67.4056 23.6612L65.0349 30.5153H69.7764ZM89.5128 29.4825C89.5128 29.9519 89.4815 30.3744 89.4189 30.75H79.9124C79.9907 31.6889 80.3193 32.4244 80.8983 32.9564C81.4773 33.4885 82.1893 33.7545 83.0343 33.7545C84.2549 33.7545 85.1234 33.2303 85.6398 32.1818H89.1842C88.8086 33.4337 88.0888 34.4665 87.0247 35.2803C85.9606 36.0783 84.6539 36.4774 83.1047 36.4774C81.8528 36.4774 80.7261 36.2035 79.7246 35.6558C78.7388 35.0925 77.9642 34.3022 77.4008 33.2851C76.8531 32.2679 76.5793 31.0943 76.5793 29.7641C76.5793 28.4184 76.8531 27.2369 77.4008 26.2198C77.9485 25.2026 78.7153 24.4202 79.7012 23.8725C80.687 23.3248 81.8215 23.0509 83.1047 23.0509C84.341 23.0509 85.4442 23.317 86.4144 23.849C87.4002 24.3811 88.1592 25.14 88.6912 26.1259C89.2389 27.0961 89.5128 28.2149 89.5128 29.4825ZM86.1092 28.5436C86.0936 27.6985 85.7884 27.0257 85.1938 26.5249C84.5992 26.0085 83.8715 25.7503 83.0108 25.7503C82.1971 25.7503 81.5086 26.0007 80.9452 26.5014C80.3975 26.9865 80.0611 27.6672 79.9359 28.5436H86.1092ZM97.005 23.0509C97.9752 23.0509 98.8281 23.2465 99.5635 23.6378C100.299 24.0133 100.878 24.5062 101.301 25.1165V23.2622H104.61V36.36C104.61 37.5649 104.368 38.6369 103.883 39.5758C103.397 40.5303 102.67 41.2815 101.7 41.8292C100.729 42.3925 99.5557 42.6742 98.1787 42.6742C96.3321 42.6742 94.8142 42.2439 93.6249 41.3832C92.4513 40.5225 91.7862 39.3489 91.6297 37.8623H94.8925C95.0646 38.4569 95.4323 38.9264 95.9957 39.2706C96.5747 39.6305 97.271 39.8105 98.0848 39.8105C99.0393 39.8105 99.8139 39.521 100.409 38.942C101.003 38.3787 101.301 37.518 101.301 36.36V34.3413C100.878 34.9516 100.291 35.4602 99.5401 35.8671C98.8046 36.2739 97.9596 36.4774 97.005 36.4774C95.9096 36.4774 94.9081 36.1957 94.0005 35.6323C93.0929 35.069 92.373 34.2788 91.841 33.2616C91.3246 32.2288 91.0664 31.0473 91.0664 29.7172C91.0664 28.4027 91.3246 27.2369 91.841 26.2198C92.373 25.2026 93.0851 24.4202 93.977 23.8725C94.8846 23.3248 95.894 23.0509 97.005 23.0509ZM101.301 29.7641C101.301 28.9661 101.144 28.2854 100.831 27.722C100.518 27.143 100.096 26.7049 99.5635 26.4075C99.0315 26.0946 98.4603 25.9381 97.85 25.9381C97.2397 25.9381 96.6764 26.0867 96.16 26.3841C95.6436 26.6814 95.2211 27.1195 94.8925 27.6985C94.5795 28.2619 94.423 28.9348 94.423 29.7172C94.423 30.4996 94.5795 31.1882 94.8925 31.7828C95.2211 32.3618 95.6436 32.8078 96.16 33.1208C96.692 33.4337 97.2554 33.5902 97.85 33.5902C98.4603 33.5902 99.0315 33.4416 99.5635 33.1442C100.096 32.8313 100.518 32.3931 100.831 31.8298C101.144 31.2508 101.301 30.5622 101.301 29.7641ZM106.975 29.7172C106.975 28.4027 107.233 27.2369 107.749 26.2198C108.281 25.2026 108.993 24.4202 109.885 23.8725C110.793 23.3248 111.802 23.0509 112.913 23.0509C113.884 23.0509 114.729 23.2465 115.448 23.6378C116.184 24.029 116.771 24.5219 117.209 25.1165V23.2622H120.519V36.2661H117.209V34.3648C116.786 34.9751 116.2 35.4837 115.448 35.8905C114.713 36.2818 113.86 36.4774 112.89 36.4774C111.794 36.4774 110.793 36.1957 109.885 35.6323C108.993 35.069 108.281 34.2788 107.749 33.2616C107.233 32.2288 106.975 31.0473 106.975 29.7172ZM117.209 29.7641C117.209 28.9661 117.052 28.2854 116.739 27.722C116.426 27.143 116.004 26.7049 115.472 26.4075C114.94 26.0946 114.369 25.9381 113.758 25.9381C113.148 25.9381 112.585 26.0867 112.068 26.3841C111.552 26.6814 111.129 27.1195 110.801 27.6985C110.488 28.2619 110.331 28.9348 110.331 29.7172C110.331 30.4996 110.488 31.1882 110.801 31.7828C111.129 32.3618 111.552 32.8078 112.068 33.1208C112.6 33.4337 113.164 33.5902 113.758 33.5902C114.369 33.5902 114.94 33.4416 115.472 33.1442C116.004 32.8313 116.426 32.3931 116.739 31.8298C117.052 31.2508 117.209 30.5622 117.209 29.7641ZM128.704 36.4774C127.64 36.4774 126.686 36.2896 125.841 35.914C124.996 35.5228 124.323 34.9986 123.822 34.3413C123.337 33.6841 123.071 32.9564 123.024 32.1584H126.334C126.396 32.6591 126.639 33.0738 127.061 33.4024C127.499 33.7311 128.039 33.8954 128.681 33.8954C129.307 33.8954 129.792 33.7702 130.136 33.5198C130.496 33.2694 130.676 32.9486 130.676 32.5574C130.676 32.1349 130.457 31.8219 130.019 31.6185C129.596 31.3994 128.916 31.1647 127.977 30.9143C127.006 30.6796 126.208 30.437 125.582 30.1867C124.972 29.9363 124.44 29.5529 123.986 29.0365C123.548 28.5201 123.329 27.8237 123.329 26.9474C123.329 26.2276 123.532 25.5703 123.939 24.9757C124.362 24.3811 124.956 23.9116 125.723 23.5673C126.506 23.2231 127.421 23.0509 128.47 23.0509C130.019 23.0509 131.255 23.4421 132.178 24.2246C133.102 24.9913 133.61 26.032 133.704 27.3465H130.559C130.512 26.8301 130.293 26.4232 129.901 26.1259C129.526 25.8129 129.017 25.6564 128.376 25.6564C127.781 25.6564 127.319 25.766 126.991 25.985C126.678 26.2041 126.521 26.5093 126.521 26.9005C126.521 27.3386 126.74 27.6751 127.179 27.9098C127.617 28.1289 128.297 28.3558 129.221 28.5905C130.16 28.8252 130.934 29.0678 131.544 29.3182C132.155 29.5685 132.679 29.9598 133.117 30.4918C133.571 31.0082 133.806 31.6967 133.821 32.5574C133.821 33.3085 133.61 33.9814 133.188 34.5761C132.781 35.1707 132.186 35.6402 131.404 35.9844C130.637 36.3131 129.737 36.4774 128.704 36.4774ZM138.185 21.713C137.606 21.713 137.121 21.533 136.73 21.1731C136.355 20.7975 136.167 20.3359 136.167 19.7882C136.167 19.2405 136.355 18.7867 136.73 18.4268C137.121 18.0512 137.606 17.8634 138.185 17.8634C138.764 17.8634 139.242 18.0512 139.617 18.4268C140.009 18.7867 140.204 19.2405 140.204 19.7882C140.204 20.3359 140.009 20.7975 139.617 21.1731C139.242 21.533 138.764 21.713 138.185 21.713ZM139.805 23.2622V36.2661H136.519V23.2622H139.805ZM148.028 36.4774C146.964 36.4774 146.009 36.2896 145.164 35.914C144.319 35.5228 143.646 34.9986 143.146 34.3413C142.661 33.6841 142.395 32.9564 142.348 32.1584H145.657C145.72 32.6591 145.962 33.0738 146.385 33.4024C146.823 33.7311 147.363 33.8954 148.005 33.8954C148.631 33.8954 149.116 33.7702 149.46 33.5198C149.82 33.2694 150 32.9486 150 32.5574C150 32.1349 149.781 31.8219 149.343 31.6185C148.92 31.3994 148.239 31.1647 147.3 30.9143C146.33 30.6796 145.532 30.437 144.906 30.1867C144.296 29.9363 143.764 29.5529 143.31 29.0365C142.872 28.5201 142.653 27.8237 142.653 26.9474C142.653 26.2276 142.856 25.5703 143.263 24.9757C143.686 24.3811 144.28 23.9116 145.047 23.5673C145.829 23.2231 146.745 23.0509 147.793 23.0509C149.343 23.0509 150.579 23.4421 151.502 24.2246C152.425 24.9913 152.934 26.032 153.028 27.3465H149.882C149.835 26.8301 149.616 26.4232 149.225 26.1259C148.85 25.8129 148.341 25.6564 147.699 25.6564C147.105 25.6564 146.643 25.766 146.315 25.985C146.002 26.2041 145.845 26.5093 145.845 26.9005C145.845 27.3386 146.064 27.6751 146.502 27.9098C146.941 28.1289 147.621 28.3558 148.544 28.5905C149.483 28.8252 150.258 29.0678 150.868 29.3182C151.479 29.5685 152.003 29.9598 152.441 30.4918C152.895 31.0082 153.129 31.6967 153.145 32.5574C153.145 33.3085 152.934 33.9814 152.511 34.5761C152.105 35.1707 151.51 35.6402 150.727 35.9844C149.961 36.3131 149.061 36.4774 148.028 36.4774ZM164.722 33.6606H170.121V36.2661H161.436V19.8821H164.722V33.6606ZM171.364 29.7172C171.364 28.4027 171.623 27.2369 172.139 26.2198C172.671 25.2026 173.383 24.4202 174.275 23.8725C175.183 23.3248 176.192 23.0509 177.303 23.0509C178.273 23.0509 179.118 23.2465 179.838 23.6378C180.574 24.029 181.16 24.5219 181.599 25.1165V23.2622H184.908V36.2661H181.599V34.3648C181.176 34.9751 180.589 35.4837 179.838 35.8905C179.103 36.2818 178.25 36.4774 177.28 36.4774C176.184 36.4774 175.183 36.1957 174.275 35.6323C173.383 35.069 172.671 34.2788 172.139 33.2616C171.623 32.2288 171.364 31.0473 171.364 29.7172ZM181.599 29.7641C181.599 28.9661 181.442 28.2854 181.129 27.722C180.816 27.143 180.394 26.7049 179.862 26.4075C179.33 26.0946 178.758 25.9381 178.148 25.9381C177.538 25.9381 176.974 26.0867 176.458 26.3841C175.942 26.6814 175.519 27.1195 175.19 27.6985C174.878 28.2619 174.721 28.9348 174.721 29.7172C174.721 30.4996 174.878 31.1882 175.19 31.7828C175.519 32.3618 175.942 32.8078 176.458 33.1208C176.99 33.4337 177.553 33.5902 178.148 33.5902C178.758 33.5902 179.33 33.4416 179.862 33.1442C180.394 32.8313 180.816 32.3931 181.129 31.8298C181.442 31.2508 181.599 30.5622 181.599 29.7641ZM191.404 25.1635C191.826 24.5375 192.405 24.029 193.141 23.6378C193.892 23.2465 194.745 23.0509 195.699 23.0509C196.811 23.0509 197.812 23.3248 198.704 23.8725C199.612 24.4202 200.324 25.2026 200.84 26.2198C201.372 27.2213 201.638 28.3871 201.638 29.7172C201.638 31.0473 201.372 32.2288 200.84 33.2616C200.324 34.2788 199.612 35.069 198.704 35.6323C197.812 36.1957 196.811 36.4774 195.699 36.4774C194.729 36.4774 193.876 36.2896 193.141 35.914C192.421 35.5228 191.842 35.0221 191.404 34.4118V36.2661H188.118V18.8962H191.404V25.1635ZM198.281 29.7172C198.281 28.9348 198.117 28.2619 197.789 27.6985C197.476 27.1195 197.053 26.6814 196.521 26.3841C196.005 26.0867 195.441 25.9381 194.831 25.9381C194.236 25.9381 193.673 26.0946 193.141 26.4075C192.625 26.7049 192.202 27.143 191.873 27.722C191.56 28.301 191.404 28.9817 191.404 29.7641C191.404 30.5466 191.56 31.2273 191.873 31.8063C192.202 32.3853 192.625 32.8313 193.141 33.1442C193.673 33.4416 194.236 33.5902 194.831 33.5902C195.441 33.5902 196.005 33.4337 196.521 33.1208C197.053 32.8078 197.476 32.3618 197.789 31.7828C198.117 31.2038 198.281 30.5153 198.281 29.7172ZM209.002 36.4774C207.938 36.4774 206.984 36.2896 206.139 35.914C205.294 35.5228 204.621 34.9986 204.12 34.3413C203.635 33.6841 203.369 32.9564 203.322 32.1584H206.632C206.694 32.6591 206.937 33.0738 207.359 33.4024C207.797 33.7311 208.337 33.8954 208.979 33.8954C209.605 33.8954 210.09 33.7702 210.434 33.5198C210.794 33.2694 210.974 32.9486 210.974 32.5574C210.974 32.1349 210.755 31.8219 210.317 31.6185C209.894 31.3994 209.214 31.1647 208.275 30.9143C207.304 30.6796 206.506 30.437 205.88 30.1867C205.27 29.9363 204.738 29.5529 204.284 29.0365C203.846 28.5201 203.627 27.8237 203.627 26.9474C203.627 26.2276 203.83 25.5703 204.237 24.9757C204.66 24.3811 205.254 23.9116 206.021 23.5673C206.804 23.2231 207.719 23.0509 208.768 23.0509C210.317 23.0509 211.553 23.4421 212.476 24.2246C213.4 24.9913 213.908 26.032 214.002 27.3465H210.857C210.81 26.8301 210.591 26.4232 210.199 26.1259C209.824 25.8129 209.315 25.6564 208.674 25.6564C208.079 25.6564 207.617 25.766 207.289 25.985C206.976 26.2041 206.819 26.5093 206.819 26.9005C206.819 27.3386 207.038 27.6751 207.477 27.9098C207.915 28.1289 208.595 28.3558 209.519 28.5905C210.458 28.8252 211.232 29.0678 211.843 29.3182C212.453 29.5685 212.977 29.9598 213.415 30.4918C213.869 31.0082 214.104 31.6967 214.119 32.5574C214.119 33.3085 213.908 33.9814 213.486 34.5761C213.079 35.1707 212.484 35.6402 211.702 35.9844C210.935 36.3131 210.035 36.4774 209.002 36.4774Z" fill="black"></path></g><defs><clipPath id="clip0_9_2"><rect width="222" height="56" fill="white" transform="translate(0.5)"></rect></clipPath></defs></svg>